<svg width="18" height="18" viewBox="0 0 24 24" fill="none" xmlns="http://www.w3.org/2000/svg">
    <path d="M12 0C5.37321 0 0 5.37321 0 12C0 18.6268 5.37321 24 12 24C18.6268 24 24 18.6268 24 12C24 5.37321 18.6268 0 12 0ZM12 21.9643C6.49821 21.9643 2.03571 17.5018 2.03571 12C2.03571 6.49821 6.49821 2.03571 12 2.03571C17.5018 2.03571 21.9643 6.49821 21.9643 12C21.9643 17.5018 17.5018 21.9643 12 21.9643Z" fill="#F6F7F8"/>
    <!-- Place the second SVG (arrow) inside the first SVG (circle) using transformations -->
    <g transform="translate(9, 7)">
      <svg width="8" height="10" viewBox="0 0 8 10" fill="none" xmlns="http://www.w3.org/2000/svg">
        <path d="M7.14333 4.82536L0.554047 0.0574985C0.522024 0.0342495 0.484189 0.0203217 0.444735 0.0172595C0.405281 0.0141972 0.36575 0.0221199 0.330523 0.0401493C0.295296 0.0581787 0.26575 0.0856109 0.24516 0.119405C0.224569 0.153198 0.213739 0.192033 0.213868 0.231606V1.48786C0.213868 1.76107 0.345119 2.02089 0.56744 2.18161L4.46208 4.99946L0.56744 7.81732C0.345119 7.97804 0.213868 8.23518 0.213868 8.51107V9.76732C0.213868 9.94143 0.412083 10.0432 0.554047 9.94143L7.14333 5.17357C7.26119 5.08786 7.26119 4.91107 7.14333 4.82536Z" fill="#F6F7F8"/>
      </svg>
    </g>
  </svg>
  