<svg width="1439" height="71" viewBox="0 0 1439 71" fill="none" xmlns="http://www.w3.org/2000/svg">
    <path d="M0 10.1841L40 15.3C80 20.2247 160 30.7434 240 35.6681C320 40.7841 400 40.7841 480 30.6C560 20.2247 640 0.143438 720 0C800 0.143438 880 20.2247 960 28.0181C1040 35.5247 1120 30.7434 1200 28.0181C1280 25.4841 1360 25.4841 1400 25.4841H1440V71.3841H1400C1360 71.3841 1280 71.3841 1200 71.3841C1120 71.3841 1040 71.3841 960 71.3841C880 71.3841 800 71.3841 720 71.3841C640 71.3841 560 71.3841 480 71.3841C400 71.3841 320 71.3841 240 71.3841C160 71.3841 80 71.3841 40 71.3841H0V10.1841Z" fill="#00CB8E"/>
    </svg>
    