<svg width="1439" height="54" viewBox="0 0 1439 54" fill="none" xmlns="http://www.w3.org/2000/svg">
    <path d="M0 7.70395L40 11.574C80 15.2994 160 23.2565 240 26.9819C320 30.852 400 30.852 480 23.148C560 15.2994 640 0.108506 720 0C800 0.108506 880 15.2994 960 21.1949C1040 26.8734 1120 23.2565 1200 21.1949C1280 19.278 1360 19.278 1400 19.278H1440V54H1400C1360 54 1280 54 1200 54C1120 54 1040 54 960 54C880 54 800 54 720 54C640 54 560 54 480 54C400 54 320 54 240 54C160 54 80 54 40 54H0V7.70395Z" fill="#00CB8E"/>
    </svg>
    