<svg width="1440" height="134" viewBox="0 0 1440 134" fill="none" xmlns="http://www.w3.org/2000/svg">
    <path d="M0 0L26.7 19.8674C53.3 39.5486 107 79.5625 160 89.3333C213.3 99.1042 267 79.5625 320 76.9104C373.3 74.4445 427 89.3333 480 96.7778C533.3 104.222 587 104.222 640 106.688C693.3 109.34 747 113.993 800 116.645C853.3 119.111 907 119.111 960 106.688C1013.3 94.4514 1067 69.3264 1120 67C1173.3 64.6736 1227 84.2153 1280 81.8889C1333.3 79.5625 1387 54.4375 1413 42.2007L1440 29.7778V134H1413.3C1386.7 134 1333 134 1280 134C1226.7 134 1173 134 1120 134C1066.7 134 1013 134 960 134C906.7 134 853 134 800 134C746.7 134 693 134 640 134C586.7 134 533 134 480 134C426.7 134 373 134 320 134C266.7 134 213 134 160 134C106.7 134 53 134 27 134H0V0Z" fill="#00CB8E"/>
</svg>
