<?xml version="1.0" standalone="no"?><svg xmlns="http://www.w3.org/2000/svg" viewBox="0 0 1440 320"><path fill="#00cba9" fill-opacity="1" d="M0,32L26.7,74.7C53.3,117,107,203,160,224C213.3,245,267,203,320,197.3C373.3,192,427,224,480,240C533.3,256,587,256,640,261.3C693.3,267,747,277,800,282.7C853.3,288,907,288,960,261.3C1013.3,235,1067,181,1120,176C1173.3,171,1227,213,1280,208C1333.3,203,1387,149,1413,122.7L1440,96L1440,320L1413.3,320C1386.7,320,1333,320,1280,320C1226.7,320,1173,320,1120,320C1066.7,320,1013,320,960,320C906.7,320,853,320,800,320C746.7,320,693,320,640,320C586.7,320,533,320,480,320C426.7,320,373,320,320,320C266.7,320,213,320,160,320C106.7,320,53,320,27,320L0,320Z"></path></svg>